<?xml version="1.0" encoding="UTF-8" standalone="no"?>
<!DOCTYPE svg PUBLIC "-//W3C//DTD SVG 1.1//EN" "http://www.w3.org/Graphics/SVG/1.1/DTD/svg11.dtd">
<svg width="100%" height="100%" viewBox="0 0 15 15" version="1.1" xmlns="http://www.w3.org/2000/svg" xmlns:xlink="http://www.w3.org/1999/xlink" xml:space="preserve" xmlns:serif="http://www.serif.com/" style="fill-rule:evenodd;clip-rule:evenodd;stroke-linejoin:round;stroke-miterlimit:1.41421;">
    <g transform="matrix(1,0,0,1,-481.392,-2491.46)">
        <g transform="matrix(1,0,0,1,-224.64,-660)">
            <g transform="matrix(1,0,0,1,-129.974,21.8972)">
                <g id="橢圓-1" serif:id="橢圓 1" transform="matrix(1,0,0,1,600.506,3060.06)">
                    <path d="M242.5,70C246.09,70 249,72.91 249,76.5C249,80.09 246.09,83 242.5,83C238.91,83 236,80.09 236,76.5C236,72.91 238.91,70 242.5,70Z" style="fill:none;stroke:rgb(246,136,37);stroke-width:1px;"/>
                </g>
                <g id="多邊形-1-拷貝-35" serif:id="多邊形 1 拷貝 35" transform="matrix(1,0,0,1,600.506,3060.06)">
                    <path d="M244.994,76.5L240.994,80.009L240.994,72.991L244.994,76.5Z" style="fill:rgb(246,136,37);fill-rule:nonzero;"/>
                </g>
            </g>
        </g>
    </g>
</svg>
